<svg xmlns="http://www.w3.org/2000/svg" width="33.112" height="44" viewBox="0 0 33.112 44" fill="none">
  <path d="M 21.003 17.33 C 18.817 17.33 16.368 17.877 13.922 18.911 C 13.922 18.911 12.22 19.644 10.17 20.923 C 10.212 20.95 10.258 20.978 10.301 21.005 C 11.887 21.997 13.922 22.952 13.922 22.952 C 16.371 23.987 18.82 24.533 21.003 24.533 C 22.601 24.533 24.033 24.24 25.264 23.66 C 26.513 23.019 27.385 22.086 27.385 21.033 C 27.388 20.999 27.385 20.962 27.385 20.929 C 27.385 20.895 27.388 20.862 27.385 20.831 C 27.385 19.787 26.513 18.841 25.264 18.2 C 24.03 17.62 22.601 17.327 21.003 17.327 L 21.003 17.33 Z" fill="#faf6f0" fill-rule="nonzero"></path>
  <path d="M 2.115 3.141 C 3.75 4.105 3.811 5.192 3.811 8.876 L 3.811 10.747 C 3.811 14.794 5.984 18.536 9.508 20.547 C 9.915 20.779 10.169 20.926 10.169 20.926 L 10.169 4.771 C 10.169 3.925 10.472 3.504 11.5 3.504 L 13.861 3.504 C 18.764 3.504 22.952 3.653 25.043 4.932 C 26.837 6.031 27.118 6.989 27.844 8.738 C 28.389 10.127 28.933 10.487 29.598 10.487 C 30.868 10.487 31.352 9.825 31.352 8.738 C 31.352 6.989 31.171 3.501 31.049 1.691 C 30.987 0.241 29.778 0 28.627 0 C 26.873 0 23.665 0.421 17.975 0.421 L 1.934 0.421 C 0.906 0.424 0.3 0.91 0.3 1.511 C 0.3 2.475 1.328 2.658 2.115 3.141 Z" fill="#faf6f0" fill-rule="nonzero"></path>
  <path d="M 11.602 39.865 L 11.137 39.596 C 11.268 39.697 11.427 39.785 11.602 39.865 Z" fill="#faf6f0" fill-rule="nonzero"></path>
  <path d="M 31.416 31.688 C 28.995 31.749 28.511 36.455 24.578 38.75 C 22.64 39.898 19.674 40.38 15.56 40.38 C 13.849 40.38 12.474 40.255 11.605 39.864 C 11.427 39.785 11.271 39.696 11.139 39.596 C 10.23 38.872 10.172 37.484 10.172 33.983 L 10.172 20.926 L 9.639 21.219 C 6.043 23.209 3.811 26.99 3.811 31.092 L 3.811 33.137 C 3.811 35.915 3.63 37.905 3.147 38.991 C 2.118 41.406 0 41.042 0 42.37 C 0 43.216 0.787 43.518 1.876 43.518 L 17.92 43.518 C 23.791 43.518 26.454 44 28.089 44 C 30.7 44 31.422 41.784 31.882 39.388 C 32.123 38.118 33.112 33.98 33.112 33.378 C 33.112 32.353 32.325 31.688 31.416 31.688 Z" fill="#faf6f0" fill-rule="nonzero"></path>
</svg>