<svg xmlns="http://www.w3.org/2000/svg" width="20.527" height="18.004" viewBox="0 0 20.527 18.004" fill="none">
  <path d="M 11.263 6.504 C 11.263 5.952 10.816 5.504 10.263 5.504 C 9.711 5.504 9.263 5.952 9.263 6.504 L 10.263 6.504 L 11.263 6.504 Z M 9.263 10.504 C 9.263 11.056 9.711 11.504 10.263 11.504 C 10.816 11.504 11.263 11.056 11.263 10.504 L 10.263 10.504 L 9.263 10.504 Z M 10.263 13.504 C 9.711 13.504 9.263 13.952 9.263 14.504 C 9.263 15.056 9.711 15.504 10.263 15.504 L 10.263 14.504 L 10.263 13.504 Z M 10.273 15.504 C 10.826 15.504 11.273 15.056 11.273 14.504 C 11.273 13.952 10.826 13.504 10.273 13.504 L 10.273 14.504 L 10.273 15.504 Z M 8.879 1.396 L 9.744 1.897 L 9.744 1.897 L 8.879 1.396 Z M 0.654 15.602 L 1.519 16.104 L 1.519 16.104 L 0.654 15.602 Z M 19.873 15.602 L 20.738 15.101 L 20.738 15.101 L 19.873 15.602 Z M 11.648 1.396 L 12.514 0.895 L 12.514 0.895 L 11.648 1.396 Z M 20.117 17.813 L 19.529 17.004 L 19.529 17.004 L 20.117 17.813 Z M 20.524 17.108 L 21.518 17.212 L 21.518 17.212 L 20.524 17.108 Z M 0.003 17.108 L -0.991 17.212 L -0.991 17.212 L 0.003 17.108 Z M 0.41 17.813 L 0.998 17.004 L 0.998 17.004 L 0.41 17.813 Z M 9.857 0.086 L 10.263 1 L 10.263 1 L 9.857 0.086 Z M 10.67 0.086 L 11.076 -0.827 L 11.076 -0.827 L 10.67 0.086 Z M 10.263 6.504 L 9.263 6.504 L 9.263 10.504 L 10.263 10.504 L 11.263 10.504 L 11.263 6.504 L 10.263 6.504 Z M 10.263 14.504 L 10.263 15.504 L 10.273 15.504 L 10.273 14.504 L 10.273 13.504 L 10.263 13.504 L 10.263 14.504 Z M 8.879 1.396 L 8.013 0.895 L -0.212 15.101 L 0.654 15.602 L 1.519 16.104 L 9.744 1.897 L 8.879 1.396 Z M 2.039 18.004 L 2.039 19.004 L 18.488 19.004 L 18.488 18.004 L 18.488 17.004 L 2.039 17.004 L 2.039 18.004 Z M 19.873 15.602 L 20.738 15.101 L 12.514 0.895 L 11.648 1.396 L 10.783 1.897 L 19.008 16.104 L 19.873 15.602 Z M 18.488 18.004 L 18.488 19.004 C 18.924 19.004 19.32 19.005 19.637 18.976 C 19.949 18.947 20.351 18.879 20.705 18.622 L 20.117 17.813 L 19.529 17.004 C 19.621 16.938 19.663 16.965 19.454 16.984 C 19.25 17.003 18.963 17.004 18.488 17.004 L 18.488 18.004 Z M 19.873 15.602 L 19.008 16.104 C 19.246 16.515 19.388 16.763 19.474 16.949 C 19.563 17.14 19.517 17.117 19.529 17.004 L 20.524 17.108 L 21.518 17.212 C 21.564 16.776 21.421 16.394 21.29 16.11 C 21.156 15.821 20.957 15.478 20.738 15.101 L 19.873 15.602 Z M 20.117 17.813 L 20.705 18.622 C 21.164 18.288 21.459 17.776 21.518 17.212 L 20.524 17.108 L 19.529 17.004 L 19.529 17.004 L 20.117 17.813 Z M 0.654 15.602 L -0.212 15.101 C -0.43 15.478 -0.629 15.821 -0.763 16.11 C -0.894 16.394 -1.037 16.776 -0.991 17.212 L 0.003 17.108 L 0.998 17.004 C 1.01 17.117 0.964 17.14 1.052 16.949 C 1.138 16.763 1.281 16.515 1.519 16.104 L 0.654 15.602 Z M 2.039 18.004 L 2.039 17.004 C 1.564 17.004 1.277 17.003 1.073 16.984 C 0.863 16.965 0.906 16.938 0.998 17.004 L 0.41 17.813 L -0.178 18.622 C 0.176 18.879 0.578 18.947 0.89 18.976 C 1.207 19.005 1.603 19.004 2.039 19.004 L 2.039 18.004 Z M 0.003 17.108 L -0.991 17.212 C -0.933 17.776 -0.637 18.288 -0.178 18.622 L 0.41 17.813 L 0.998 17.004 L 0.998 17.004 L 0.003 17.108 Z M 8.879 1.396 L 9.744 1.897 C 9.981 1.487 10.125 1.241 10.243 1.074 C 10.364 0.904 10.366 0.954 10.263 1 L 9.857 0.086 L 9.451 -0.827 C 9.051 -0.65 8.792 -0.337 8.611 -0.082 C 8.428 0.177 8.231 0.519 8.013 0.895 L 8.879 1.396 Z M 11.648 1.396 L 12.514 0.895 C 12.296 0.519 12.099 0.177 11.916 -0.082 C 11.735 -0.337 11.476 -0.65 11.076 -0.827 L 10.67 0.086 L 10.263 1 C 10.16 0.954 10.163 0.904 10.284 1.074 C 10.402 1.241 10.546 1.487 10.783 1.897 L 11.648 1.396 Z M 9.857 0.086 L 10.263 1 L 10.263 1 L 10.67 0.086 L 11.076 -0.827 C 10.559 -1.058 9.968 -1.058 9.451 -0.827 L 9.857 0.086 Z" fill="currentColor" fill-rule="nonzero"></path>
</svg>