<svg xmlns="http://www.w3.org/2000/svg" width="24" height="24" viewBox="0 0 24 24" fill="none">
  <g transform="translate(2.805, 2.805)">
    <path d="M 9.195 8.195 C 8.643 8.195 8.195 8.643 8.195 9.195 C 8.195 9.747 8.643 10.195 9.195 10.195 L 9.195 9.195 L 9.195 8.195 Z M 9.205 10.195 C 9.757 10.195 10.205 9.747 10.205 9.195 C 10.205 8.643 9.757 8.195 9.205 8.195 L 9.205 9.195 L 9.205 10.195 Z M 12.73 12.731 L 12.023 12.023 C 9.75 14.297 7.34 15.936 5.314 16.77 C 4.299 17.188 3.428 17.385 2.745 17.39 C 2.068 17.395 1.658 17.215 1.417 16.973 L 0.71 17.68 L 0.002 18.387 C 0.737 19.122 1.733 19.397 2.76 19.39 C 3.782 19.382 4.915 19.097 6.076 18.62 C 8.4 17.662 11.024 15.851 13.437 13.438 L 12.73 12.731 Z M 0.71 17.68 L 1.417 16.973 C 1.175 16.731 0.995 16.322 1 15.645 C 1.005 14.962 1.201 14.091 1.62 13.076 C 2.454 11.05 4.093 8.64 6.366 6.367 L 5.659 5.659 L 4.952 4.952 C 2.539 7.365 0.727 9.99 -0.23 12.314 C -0.708 13.474 -0.992 14.608 -1 15.63 C -1.008 16.657 -0.732 17.653 0.002 18.387 L 0.71 17.68 Z M 5.659 5.659 L 6.366 6.367 C 8.64 4.093 11.05 2.454 13.076 1.62 C 14.091 1.202 14.962 1.005 15.645 1 C 16.322 0.995 16.731 1.175 16.973 1.417 L 17.68 0.71 L 18.387 0.003 C 17.653 -0.732 16.657 -1.007 15.63 -1 C 14.607 -0.992 13.474 -0.707 12.314 -0.23 C 9.989 0.727 7.365 2.539 4.952 4.952 L 5.659 5.659 Z M 17.68 0.71 L 16.973 1.417 C 17.215 1.659 17.395 2.068 17.39 2.745 C 17.384 3.428 17.188 4.299 16.77 5.314 C 15.936 7.34 14.296 9.75 12.023 12.023 L 12.73 12.731 L 13.437 13.438 C 15.851 11.024 17.662 8.4 18.62 6.076 C 19.097 4.916 19.382 3.782 19.389 2.76 C 19.397 1.733 19.122 0.737 18.387 0.003 L 17.68 0.71 Z M 12.73 5.659 L 12.023 6.366 C 14.296 8.639 15.936 11.049 16.77 13.076 C 17.188 14.091 17.384 14.962 17.389 15.645 C 17.395 16.322 17.215 16.731 16.973 16.973 L 17.68 17.68 L 18.387 18.387 C 19.122 17.653 19.397 16.657 19.389 15.63 C 19.382 14.607 19.097 13.474 18.619 12.314 C 17.662 9.989 15.851 7.365 13.437 4.952 L 12.73 5.659 Z M 17.68 17.68 L 16.973 16.973 C 16.731 17.215 16.322 17.395 15.645 17.389 C 14.962 17.384 14.091 17.188 13.076 16.77 C 11.049 15.936 8.639 14.296 6.366 12.023 L 5.659 12.73 L 4.952 13.437 C 7.365 15.851 9.989 17.662 12.314 18.619 C 13.474 19.097 14.607 19.382 15.63 19.389 C 16.657 19.397 17.653 19.122 18.387 18.387 L 17.68 17.68 Z M 5.659 12.73 L 6.366 12.023 C 4.093 9.75 2.454 7.34 1.619 5.314 C 1.201 4.299 1.005 3.427 1 2.745 C 0.995 2.067 1.175 1.658 1.417 1.417 L 0.71 0.71 L 0.002 0.002 C -0.732 0.737 -1.008 1.733 -1 2.76 C -0.992 3.782 -0.708 4.915 -0.23 6.076 C 0.727 8.4 2.539 11.024 4.952 13.437 L 5.659 12.73 Z M 0.71 0.71 L 1.417 1.417 C 1.658 1.175 2.067 0.995 2.745 1 C 3.427 1.005 4.299 1.201 5.314 1.619 C 7.34 2.454 9.75 4.093 12.023 6.366 L 12.73 5.659 L 13.437 4.952 C 11.024 2.539 8.4 0.727 6.076 -0.23 C 4.915 -0.708 3.782 -0.992 2.76 -1 C 1.733 -1.008 0.737 -0.732 0.002 0.002 L 0.71 0.71 Z M 9.195 9.195 L 9.195 10.195 L 9.205 10.195 L 9.205 9.195 L 9.205 8.195 L 9.195 8.195 L 9.195 9.195 Z M 9.695 9.195 L 8.695 9.195 C 8.695 8.919 8.919 8.695 9.195 8.695 L 9.195 9.695 L 9.195 10.695 C 10.023 10.695 10.695 10.023 10.695 9.195 L 9.695 9.195 Z M 9.195 9.695 L 9.195 8.695 C 9.471 8.695 9.695 8.919 9.695 9.195 L 8.695 9.195 L 7.695 9.195 C 7.695 10.023 8.366 10.695 9.195 10.695 L 9.195 9.695 Z M 8.695 9.195 L 9.695 9.195 C 9.695 9.471 9.471 9.695 9.195 9.695 L 9.195 8.695 L 9.195 7.695 C 8.366 7.695 7.695 8.367 7.695 9.195 L 8.695 9.195 Z M 9.195 8.695 L 9.195 9.695 C 8.919 9.695 8.695 9.471 8.695 9.195 L 9.695 9.195 L 10.695 9.195 C 10.695 8.367 10.023 7.695 9.195 7.695 L 9.195 8.695 Z" fill="currentColor" fill-rule="nonzero"></path>
  </g>
</svg>