<svg xmlns="http://www.w3.org/2000/svg" width="24" height="24" viewBox="0 0 24 24" fill="none">
  <g transform="translate(2, 3)">
    <path d="M 10 18 L 9.168 18.555 C 9.353 18.833 9.666 19 10 19 C 10.334 19 10.647 18.833 10.832 18.555 L 10 18 Z M 9.9 17.85 L 9.068 18.405 L 9.068 18.405 L 9.9 17.85 Z M 8.399 15.91 L 7.764 16.682 L 7.764 16.682 L 8.399 15.91 Z M 7.022 15.173 L 6.731 16.129 L 7.022 15.173 Z M 0.218 13.908 L 1.109 13.454 L 0.218 13.908 Z M 1.092 14.782 L 1.546 13.891 L 1.092 14.782 Z M 7.816 0.436 L 7.362 1.327 L 7.816 0.436 Z M 9.564 2.184 L 8.673 2.638 L 9.564 2.184 Z M 1.092 0.218 L 1.546 1.109 L 1.092 0.218 Z M 0.218 1.092 L 1.109 1.546 L 0.218 1.092 Z M 10.1 17.85 L 10.932 18.405 L 10.932 18.405 L 10.1 17.85 Z M 11.601 15.91 L 12.236 16.682 L 12.236 16.682 L 11.601 15.91 Z M 12.978 15.173 L 13.269 16.129 L 12.978 15.173 Z M 19.782 13.908 L 18.891 13.454 L 19.782 13.908 Z M 18.908 14.782 L 18.454 13.891 L 18.908 14.782 Z M 12.184 0.436 L 12.638 1.327 L 12.184 0.436 Z M 10.436 2.184 L 11.327 2.638 L 10.436 2.184 Z M 18.908 0.218 L 18.454 1.109 L 18.908 0.218 Z M 19.782 1.092 L 18.891 1.546 L 19.782 1.092 Z M 3.2 0 L 3.2 1 L 3.6 1 L 3.6 0 L 3.6 -1 L 3.2 -1 L 3.2 0 Z M 0 11.8 L 1 11.8 L 1 3.2 L 0 3.2 L -1 3.2 L -1 11.8 L 0 11.8 Z M 10 18 L 10.832 17.445 L 10.732 17.295 L 9.9 17.85 L 9.068 18.405 L 9.168 18.555 L 10 18 Z M 4.575 15 L 4.575 14 L 3.2 14 L 3.2 15 L 3.2 16 L 4.575 16 L 4.575 15 Z M 9.9 17.85 L 10.732 17.295 C 10.072 16.305 9.635 15.631 9.034 15.137 L 8.399 15.91 L 7.764 16.682 C 8.081 16.943 8.339 17.311 9.068 18.405 L 9.9 17.85 Z M 4.575 15 L 4.575 16 C 5.889 16 6.338 16.01 6.731 16.129 L 7.022 15.173 L 7.312 14.216 C 6.568 13.99 5.765 14 4.575 14 L 4.575 15 Z M 8.399 15.91 L 9.034 15.137 C 8.526 14.72 7.941 14.407 7.312 14.216 L 7.022 15.173 L 6.731 16.129 C 7.108 16.244 7.459 16.432 7.764 16.682 L 8.399 15.91 Z M 0 11.8 L -1 11.8 C -1 12.344 -1.001 12.811 -0.969 13.195 C -0.937 13.59 -0.866 13.984 -0.673 14.362 L 0.218 13.908 L 1.109 13.454 C 1.084 13.405 1.046 13.304 1.024 13.032 C 1.001 12.749 1 12.377 1 11.8 L 0 11.8 Z M 3.2 15 L 3.2 14 C 2.623 14 2.251 13.999 1.968 13.976 C 1.696 13.954 1.595 13.916 1.546 13.891 L 1.092 14.782 L 0.638 15.673 C 1.016 15.866 1.41 15.937 1.805 15.969 C 2.189 16.001 2.656 16 3.2 16 L 3.2 15 Z M 0.218 13.908 L -0.673 14.362 C -0.385 14.926 0.074 15.385 0.638 15.673 L 1.092 14.782 L 1.546 13.891 C 1.358 13.795 1.205 13.642 1.109 13.454 L 0.218 13.908 Z M 3.6 0 L 3.6 1 C 4.737 1 5.529 1.001 6.146 1.051 C 6.751 1.101 7.099 1.193 7.362 1.327 L 7.816 0.436 L 8.27 -0.455 C 7.678 -0.757 7.037 -0.883 6.309 -0.942 C 5.591 -1.001 4.704 -1 3.6 -1 L 3.6 0 Z M 10 6.4 L 11 6.4 C 11 5.296 11.001 4.409 10.942 3.691 C 10.883 2.963 10.757 2.322 10.455 1.73 L 9.564 2.184 L 8.673 2.638 C 8.807 2.901 8.899 3.249 8.949 3.854 C 8.999 4.471 9 5.263 9 6.4 L 10 6.4 Z M 7.816 0.436 L 7.362 1.327 C 7.926 1.615 8.385 2.074 8.673 2.638 L 9.564 2.184 L 10.455 1.73 C 9.976 0.789 9.211 0.024 8.27 -0.455 L 7.816 0.436 Z M 3.2 0 L 3.2 -1 C 2.656 -1 2.189 -1.001 1.805 -0.969 C 1.41 -0.937 1.016 -0.866 0.638 -0.673 L 1.092 0.218 L 1.546 1.109 C 1.595 1.084 1.696 1.046 1.968 1.024 C 2.251 1.001 2.623 1 3.2 1 L 3.2 0 Z M 0 3.2 L 1 3.2 C 1 2.623 1.001 2.251 1.024 1.968 C 1.046 1.696 1.084 1.595 1.109 1.546 L 0.218 1.092 L -0.673 0.638 C -0.866 1.016 -0.937 1.41 -0.969 1.805 C -1.001 2.189 -1 2.656 -1 3.2 L 0 3.2 Z M 1.092 0.218 L 0.638 -0.673 C 0.074 -0.385 -0.385 0.074 -0.673 0.638 L 0.218 1.092 L 1.109 1.546 C 1.205 1.358 1.358 1.205 1.546 1.109 L 1.092 0.218 Z M 16.8 0 L 16.8 -1 L 16.4 -1 L 16.4 0 L 16.4 1 L 16.8 1 L 16.8 0 Z M 10 6.4 L 9 6.4 L 9 18 L 10 18 L 11 18 L 11 6.4 L 10 6.4 Z M 20 11.8 L 21 11.8 L 21 3.2 L 20 3.2 L 19 3.2 L 19 11.8 L 20 11.8 Z M 10 18 L 10.832 18.555 L 10.932 18.405 L 10.1 17.85 L 9.268 17.295 L 9.168 17.445 L 10 18 Z M 15.425 15 L 15.425 16 L 16.8 16 L 16.8 15 L 16.8 14 L 15.425 14 L 15.425 15 Z M 10.1 17.85 L 10.932 18.405 C 11.661 17.311 11.919 16.943 12.236 16.682 L 11.601 15.91 L 10.966 15.137 C 10.365 15.631 9.928 16.305 9.268 17.295 L 10.1 17.85 Z M 15.425 15 L 15.425 14 C 14.235 14 13.432 13.99 12.688 14.216 L 12.978 15.173 L 13.269 16.129 C 13.662 16.01 14.111 16 15.425 16 L 15.425 15 Z M 11.601 15.91 L 12.236 16.682 C 12.541 16.432 12.892 16.244 13.269 16.129 L 12.978 15.173 L 12.688 14.216 C 12.059 14.407 11.474 14.72 10.966 15.137 L 11.601 15.91 Z M 20 11.8 L 19 11.8 C 19 12.377 18.999 12.749 18.976 13.032 C 18.954 13.304 18.916 13.405 18.891 13.454 L 19.782 13.908 L 20.673 14.362 C 20.866 13.984 20.937 13.59 20.969 13.195 C 21.001 12.811 21 12.344 21 11.8 L 20 11.8 Z M 16.8 15 L 16.8 16 C 17.344 16 17.811 16.001 18.195 15.969 C 18.59 15.937 18.984 15.866 19.362 15.673 L 18.908 14.782 L 18.454 13.891 C 18.405 13.916 18.304 13.954 18.032 13.976 C 17.749 13.999 17.377 14 16.8 14 L 16.8 15 Z M 19.782 13.908 L 18.891 13.454 C 18.795 13.642 18.642 13.795 18.454 13.891 L 18.908 14.782 L 19.362 15.673 C 19.926 15.385 20.385 14.926 20.673 14.362 L 19.782 13.908 Z M 16.4 0 L 16.4 -1 C 15.296 -1 14.409 -1.001 13.691 -0.942 C 12.963 -0.883 12.322 -0.757 11.73 -0.455 L 12.184 0.436 L 12.638 1.327 C 12.901 1.193 13.249 1.101 13.854 1.051 C 14.471 1.001 15.263 1 16.4 1 L 16.4 0 Z M 10 6.4 L 11 6.4 C 11 5.263 11.001 4.471 11.051 3.854 C 11.101 3.249 11.193 2.901 11.327 2.638 L 10.436 2.184 L 9.545 1.73 C 9.243 2.322 9.117 2.963 9.058 3.691 C 8.999 4.409 9 5.296 9 6.4 L 10 6.4 Z M 12.184 0.436 L 11.73 -0.455 C 10.789 0.024 10.024 0.789 9.545 1.73 L 10.436 2.184 L 11.327 2.638 C 11.615 2.074 12.074 1.615 12.638 1.327 L 12.184 0.436 Z M 16.8 0 L 16.8 1 C 17.377 1 17.749 1.001 18.032 1.024 C 18.304 1.046 18.405 1.084 18.454 1.109 L 18.908 0.218 L 19.362 -0.673 C 18.984 -0.866 18.59 -0.937 18.195 -0.969 C 17.811 -1.001 17.344 -1 16.8 -1 L 16.8 0 Z M 20 3.2 L 21 3.2 C 21 2.656 21.001 2.189 20.969 1.805 C 20.937 1.41 20.866 1.016 20.673 0.638 L 19.782 1.092 L 18.891 1.546 C 18.916 1.595 18.954 1.696 18.976 1.968 C 18.999 2.251 19 2.623 19 3.2 L 20 3.2 Z M 18.908 0.218 L 18.454 1.109 C 18.642 1.205 18.795 1.358 18.891 1.546 L 19.782 1.092 L 20.673 0.638 C 20.385 0.074 19.926 -0.385 19.362 -0.673 L 18.908 0.218 Z" fill="currentColor" fill-rule="nonzero"></path>
  </g>
</svg>