<svg xmlns="http://www.w3.org/2000/svg" width="24" height="24" viewBox="0 0 24 24" fill="none">
  <g transform="translate(3, 3)">
    <path d="M 1.638 17.673 L 1.184 18.564 L 1.638 17.673 Z M 0.327 16.362 L -0.564 16.816 L 0.327 16.362 Z M 17.673 16.362 L 18.564 16.816 L 17.673 16.362 Z M 16.362 17.673 L 16.816 18.564 L 16.362 17.673 Z M 16.362 0.327 L 16.816 -0.564 L 16.362 0.327 Z M 17.673 1.638 L 18.564 1.184 L 17.673 1.638 Z M 1.638 0.327 L 1.184 -0.564 L 1.638 0.327 Z M 0.327 1.638 L -0.564 1.184 L 0.327 1.638 Z M 15.207 4.207 C 15.598 3.817 15.598 3.183 15.207 2.793 C 14.817 2.402 14.183 2.402 13.793 2.793 L 14.5 3.5 L 15.207 4.207 Z M 2.793 13.793 C 2.402 14.183 2.402 14.817 2.793 15.207 C 3.183 15.598 3.817 15.598 4.207 15.207 L 3.5 14.5 L 2.793 13.793 Z M 4.5 7.5 C 4.5 8.052 4.948 8.5 5.5 8.5 C 6.052 8.5 6.5 8.052 6.5 7.5 L 5.5 7.5 L 4.5 7.5 Z M 6.5 3.5 C 6.5 2.948 6.052 2.5 5.5 2.5 C 4.948 2.5 4.5 2.948 4.5 3.5 L 5.5 3.5 L 6.5 3.5 Z M 3.5 4.5 C 2.948 4.5 2.5 4.948 2.5 5.5 C 2.5 6.052 2.948 6.5 3.5 6.5 L 3.5 5.5 L 3.5 4.5 Z M 7.5 6.5 C 8.052 6.5 8.5 6.052 8.5 5.5 C 8.5 4.948 8.052 4.5 7.5 4.5 L 7.5 5.5 L 7.5 6.5 Z M 10.5 11.5 C 9.948 11.5 9.5 11.948 9.5 12.5 C 9.5 13.052 9.948 13.5 10.5 13.5 L 10.5 12.5 L 10.5 11.5 Z M 14.5 13.5 C 15.052 13.5 15.5 13.052 15.5 12.5 C 15.5 11.948 15.052 11.5 14.5 11.5 L 14.5 12.5 L 14.5 13.5 Z M 4.8 0 L 4.8 1 L 13.2 1 L 13.2 0 L 13.2 -1 L 4.8 -1 L 4.8 0 Z M 18 4.8 L 17 4.8 L 17 13.2 L 18 13.2 L 19 13.2 L 19 4.8 L 18 4.8 Z M 13.2 18 L 13.2 17 L 4.8 17 L 4.8 18 L 4.8 19 L 13.2 19 L 13.2 18 Z M 0 13.2 L 1 13.2 L 1 4.8 L 0 4.8 L -1 4.8 L -1 13.2 L 0 13.2 Z M 4.8 18 L 4.8 17 C 3.943 17 3.361 16.999 2.911 16.962 C 2.473 16.927 2.248 16.862 2.092 16.782 L 1.638 17.673 L 1.184 18.564 C 1.669 18.811 2.186 18.91 2.748 18.956 C 3.299 19.001 3.976 19 4.8 19 L 4.8 18 Z M 0 13.2 L -1 13.2 C -1 14.024 -1.001 14.701 -0.956 15.252 C -0.91 15.814 -0.811 16.331 -0.564 16.816 L 0.327 16.362 L 1.218 15.908 C 1.138 15.752 1.073 15.527 1.038 15.089 C 1.001 14.639 1 14.057 1 13.2 L 0 13.2 Z M 1.638 17.673 L 2.092 16.782 C 1.716 16.59 1.41 16.284 1.218 15.908 L 0.327 16.362 L -0.564 16.816 C -0.181 17.569 0.431 18.181 1.184 18.564 L 1.638 17.673 Z M 18 13.2 L 17 13.2 C 17 14.057 16.999 14.639 16.962 15.089 C 16.927 15.527 16.862 15.752 16.782 15.908 L 17.673 16.362 L 18.564 16.816 C 18.811 16.331 18.91 15.814 18.956 15.252 C 19.001 14.701 19 14.024 19 13.2 L 18 13.2 Z M 13.2 18 L 13.2 19 C 14.024 19 14.701 19.001 15.252 18.956 C 15.814 18.91 16.331 18.811 16.816 18.564 L 16.362 17.673 L 15.908 16.782 C 15.752 16.862 15.527 16.927 15.089 16.962 C 14.639 16.999 14.057 17 13.2 17 L 13.2 18 Z M 17.673 16.362 L 16.782 15.908 C 16.59 16.284 16.284 16.59 15.908 16.782 L 16.362 17.673 L 16.816 18.564 C 17.569 18.181 18.181 17.569 18.564 16.816 L 17.673 16.362 Z M 13.2 0 L 13.2 1 C 14.057 1 14.639 1.001 15.089 1.038 C 15.527 1.073 15.752 1.138 15.908 1.218 L 16.362 0.327 L 16.816 -0.564 C 16.331 -0.811 15.814 -0.91 15.252 -0.956 C 14.701 -1.001 14.024 -1 13.2 -1 L 13.2 0 Z M 18 4.8 L 19 4.8 C 19 3.976 19.001 3.299 18.956 2.748 C 18.91 2.186 18.811 1.669 18.564 1.184 L 17.673 1.638 L 16.782 2.092 C 16.862 2.248 16.927 2.473 16.962 2.911 C 16.999 3.361 17 3.943 17 4.8 L 18 4.8 Z M 16.362 0.327 L 15.908 1.218 C 16.284 1.41 16.59 1.716 16.782 2.092 L 17.673 1.638 L 18.564 1.184 C 18.181 0.431 17.569 -0.181 16.816 -0.564 L 16.362 0.327 Z M 4.8 0 L 4.8 -1 C 3.976 -1 3.299 -1.001 2.748 -0.956 C 2.186 -0.91 1.669 -0.811 1.184 -0.564 L 1.638 0.327 L 2.092 1.218 C 2.248 1.138 2.473 1.073 2.911 1.038 C 3.361 1.001 3.943 1 4.8 1 L 4.8 0 Z M 0 4.8 L 1 4.8 C 1 3.943 1.001 3.361 1.038 2.911 C 1.073 2.473 1.138 2.248 1.218 2.092 L 0.327 1.638 L -0.564 1.184 C -0.811 1.669 -0.91 2.186 -0.956 2.748 C -1.001 3.299 -1 3.976 -1 4.8 L 0 4.8 Z M 1.638 0.327 L 1.184 -0.564 C 0.431 -0.181 -0.181 0.431 -0.564 1.184 L 0.327 1.638 L 1.218 2.092 C 1.41 1.716 1.716 1.41 2.092 1.218 L 1.638 0.327 Z M 14.5 3.5 L 13.793 2.793 L 2.793 13.793 L 3.5 14.5 L 4.207 15.207 L 15.207 4.207 L 14.5 3.5 Z M 5.5 7.5 L 6.5 7.5 L 6.5 3.5 L 5.5 3.5 L 4.5 3.5 L 4.5 7.5 L 5.5 7.5 Z M 3.5 5.5 L 3.5 6.5 L 7.5 6.5 L 7.5 5.5 L 7.5 4.5 L 3.5 4.5 L 3.5 5.5 Z M 10.5 12.5 L 10.5 13.5 L 14.5 13.5 L 14.5 12.5 L 14.5 11.5 L 10.5 11.5 L 10.5 12.5 Z" fill="currentColor" fill-rule="nonzero"></path>
  </g>
</svg>