<svg xmlns="http://www.w3.org/2000/svg" width="24" height="24" viewBox="0 0 24 24" fill="none">
  <g transform="translate(2, 5)">
    <path d="M 6.828 7.172 L 7.536 6.464 L 7.536 6.464 L 6.828 7.172 Z M 6.828 12.828 L 7.536 13.536 L 7.536 13.536 L 6.828 12.828 Z M 1.172 12.828 L 0.464 13.536 L 0.464 13.536 L 1.172 12.828 Z M 1.172 7.172 L 0.464 6.464 L 0.464 6.464 L 1.172 7.172 Z M 18.828 7.172 L 19.536 6.464 L 19.536 6.464 L 18.828 7.172 Z M 18.828 12.828 L 19.536 13.536 L 19.536 13.536 L 18.828 12.828 Z M 13.172 12.828 L 12.464 13.536 L 12.464 13.536 L 13.172 12.828 Z M 13.172 7.172 L 12.464 6.464 L 12.464 6.464 L 13.172 7.172 Z M 7.5 8.669 C 7.021 8.945 6.858 9.557 7.134 10.035 C 7.411 10.513 8.022 10.677 8.5 10.401 L 8 9.535 L 7.5 8.669 Z M 11.499 10.401 C 11.978 10.677 12.589 10.513 12.866 10.035 C 13.142 9.557 12.978 8.945 12.5 8.669 L 12 9.535 L 11.499 10.401 Z M -0.995 9.9 C -1.05 10.45 -0.649 10.94 -0.1 10.995 C 0.45 11.05 0.94 10.649 0.995 10.1 L 0 10 L -0.995 9.9 Z M 0.701 2.985 L 1.697 3.085 L 1.697 3.085 L 0.701 2.985 Z M 0.762 2.472 L -0.223 2.296 L -0.223 2.296 L 0.762 2.472 Z M 4 1 C 4.552 1 5 0.552 5 0 C 5 -0.552 4.552 -1 4 -1 L 4 0 L 4 1 Z M 3.484 0.009 L 3.561 1.006 L 3.561 1.006 L 3.484 0.009 Z M 19.005 10.1 C 19.06 10.649 19.55 11.05 20.1 10.995 C 20.649 10.94 21.05 10.45 20.995 9.9 L 20 10 L 19.005 10.1 Z M 19.299 2.985 L 18.303 3.085 L 18.303 3.085 L 19.299 2.985 Z M 19.238 2.472 L 18.254 2.648 L 18.254 2.648 L 19.238 2.472 Z M 16 -1 C 15.448 -1 15 -0.552 15 0 C 15 0.552 15.448 1 16 1 L 16 0 L 16 -1 Z M 16.516 0.009 L 16.439 1.006 L 16.516 0.009 Z M 6.828 7.172 L 6.121 7.879 C 7.293 9.05 7.293 10.95 6.121 12.121 L 6.828 12.828 L 7.536 13.536 C 9.488 11.583 9.488 8.417 7.536 6.464 L 6.828 7.172 Z M 6.828 12.828 L 6.121 12.121 C 4.95 13.293 3.05 13.293 1.879 12.121 L 1.172 12.828 L 0.464 13.536 C 2.417 15.488 5.583 15.488 7.536 13.536 L 6.828 12.828 Z M 1.172 12.828 L 1.879 12.121 C 0.707 10.95 0.707 9.05 1.879 7.879 L 1.172 7.172 L 0.464 6.464 C -1.488 8.417 -1.488 11.583 0.464 13.536 L 1.172 12.828 Z M 1.172 7.172 L 1.879 7.879 C 3.05 6.707 4.95 6.707 6.121 7.879 L 6.828 7.172 L 7.536 6.464 C 5.583 4.512 2.417 4.512 0.464 6.464 L 1.172 7.172 Z M 18.828 7.172 L 18.121 7.879 C 19.293 9.05 19.293 10.95 18.121 12.121 L 18.828 12.828 L 19.536 13.536 C 21.488 11.583 21.488 8.417 19.536 6.464 L 18.828 7.172 Z M 18.828 12.828 L 18.121 12.121 C 16.95 13.293 15.05 13.293 13.879 12.121 L 13.172 12.828 L 12.464 13.536 C 14.417 15.488 17.583 15.488 19.536 13.536 L 18.828 12.828 Z M 13.172 12.828 L 13.879 12.121 C 12.707 10.95 12.707 9.05 13.879 7.879 L 13.172 7.172 L 12.464 6.464 C 10.512 8.417 10.512 11.583 12.464 13.536 L 13.172 12.828 Z M 13.172 7.172 L 13.879 7.879 C 15.05 6.707 16.95 6.707 18.121 7.879 L 18.828 7.172 L 19.536 6.464 C 17.583 4.512 14.417 4.512 12.464 6.464 L 13.172 7.172 Z M 8 9.535 L 8.5 10.401 C 9.424 9.866 10.576 9.866 11.499 10.401 L 12 9.535 L 12.5 8.669 C 10.957 7.777 9.043 7.777 7.5 8.669 L 8 9.535 Z M 0 10 L 0.995 10.1 L 1.697 3.085 L 0.701 2.985 L -0.294 2.886 L -0.995 9.9 L 0 10 Z M 0.701 2.985 L 1.697 3.085 C 1.725 2.801 1.734 2.715 1.746 2.648 L 0.762 2.472 L -0.223 2.296 C -0.252 2.458 -0.269 2.638 -0.294 2.886 L 0.701 2.985 Z M 4 0 L 4 -1 C 3.751 -1 3.57 -1.001 3.406 -0.988 L 3.484 0.009 L 3.561 1.006 C 3.628 1.001 3.715 1 4 1 L 4 0 Z M 0.762 2.472 L 1.746 2.648 C 1.906 1.751 2.652 1.076 3.561 1.006 L 3.484 0.009 L 3.406 -0.988 C 1.59 -0.848 0.098 0.503 -0.223 2.296 L 0.762 2.472 Z M 20 10 L 20.995 9.9 L 20.294 2.886 L 19.299 2.985 L 18.303 3.085 L 19.005 10.1 L 20 10 Z M 19.299 2.985 L 20.294 2.886 C 20.269 2.638 20.251 2.458 20.223 2.296 L 19.238 2.472 L 18.254 2.648 C 18.266 2.715 18.275 2.801 18.303 3.085 L 19.299 2.985 Z M 16 0 L 16 1 C 16.285 1 16.372 1.001 16.439 1.006 L 16.516 0.009 L 16.594 -0.988 C 16.43 -1.001 16.249 -1 16 -1 L 16 0 Z M 19.238 2.472 L 20.223 2.296 C 19.902 0.503 18.41 -0.848 16.594 -0.988 L 16.516 0.009 L 16.439 1.006 C 17.348 1.076 18.094 1.751 18.254 2.648 L 19.238 2.472 Z" fill="currentColor" fill-rule="nonzero"></path>
  </g>
</svg>