<svg xmlns="http://www.w3.org/2000/svg" width="20" height="20" viewBox="0 0 20 20" fill="none">
  <path d="M 17 0 L 17.894 -0.447 C 17.751 -0.735 17.477 -0.936 17.16 -0.987 C 16.843 -1.039 16.52 -0.934 16.293 -0.707 L 17 0 Z M 14 3 L 13.293 2.293 C 13.105 2.48 13 2.735 13 3 L 14 3 Z M 17 6 L 17 7 C 17.265 7 17.52 6.895 17.707 6.707 L 17 6 Z M 20 3 L 20.707 3.707 C 20.934 3.48 21.039 3.157 20.987 2.84 C 20.936 2.523 20.735 2.249 20.447 2.106 L 20 3 Z M 18 2 L 17.106 2.447 C 17.202 2.641 17.359 2.798 17.553 2.894 L 18 2 Z M 9.293 9.293 C 8.902 9.683 8.902 10.317 9.293 10.707 C 9.683 11.098 10.317 11.098 10.707 10.707 L 10 10 L 9.293 9.293 Z M 21 10 C 21 9.448 20.552 9 20 9 C 19.448 9 19 9.448 19 10 L 20 10 L 21 10 Z M 10 1 C 10.552 1 11 0.552 11 0 C 11 -0.552 10.552 -1 10 -1 L 10 0 L 10 1 Z M 16 10 C 16 9.448 15.552 9 15 9 C 14.448 9 14 9.448 14 10 L 15 10 L 16 10 Z M 10 6 C 10.552 6 11 5.552 11 5 C 11 4.448 10.552 4 10 4 L 10 5 L 10 6 Z M 17 0 L 16.293 -0.707 L 13.293 2.293 L 14 3 L 14.707 3.707 L 17.707 0.707 L 17 0 Z M 14 3 L 13 3 L 13 6 L 14 6 L 15 6 L 15 3 L 14 3 Z M 14 6 L 14 7 L 17 7 L 17 6 L 17 5 L 14 5 L 14 6 Z M 17 6 L 17.707 6.707 L 20.707 3.707 L 20 3 L 19.293 2.293 L 16.293 5.293 L 17 6 Z M 20 3 L 20.447 2.106 L 18.447 1.106 L 18 2 L 17.553 2.894 L 19.553 3.894 L 20 3 Z M 18 2 L 18.894 1.553 L 17.894 -0.447 L 17 0 L 16.106 0.447 L 17.106 2.447 L 18 2 Z M 14 6 L 13.293 5.293 L 9.293 9.293 L 10 10 L 10.707 10.707 L 14.707 6.707 L 14 6 Z M 20 10 L 19 10 C 19 14.971 14.971 19 10 19 L 10 20 L 10 21 C 16.075 21 21 16.075 21 10 L 20 10 Z M 10 20 L 10 19 C 5.029 19 1 14.971 1 10 L 0 10 L -1 10 C -1 16.075 3.925 21 10 21 L 10 20 Z M 0 10 L 1 10 C 1 5.029 5.029 1 10 1 L 10 0 L 10 -1 C 3.925 -1 -1 3.925 -1 10 L 0 10 Z M 15 10 L 14 10 C 14 12.209 12.209 14 10 14 L 10 15 L 10 16 C 13.314 16 16 13.314 16 10 L 15 10 Z M 10 15 L 10 14 C 7.791 14 6 12.209 6 10 L 5 10 L 4 10 C 4 13.314 6.686 16 10 16 L 10 15 Z M 5 10 L 6 10 C 6 7.791 7.791 6 10 6 L 10 5 L 10 4 C 6.686 4 4 6.686 4 10 L 5 10 Z" fill="currentColor" fill-rule="nonzero"></path>
</svg>