<svg xmlns="http://www.w3.org/2000/svg" width="24" height="24" viewBox="0 0 24 24" fill="none">
  <g transform="translate(3, 3)">
    <path d="M 6 -1 C 5.448 -1 5 -0.552 5 0 C 5 0.552 5.448 1 6 1 L 6 0 L 6 -1 Z M 12 1 C 12.552 1 13 0.552 13 0 C 13 -0.552 12.552 -1 12 -1 L 12 0 L 12 1 Z M 0 2 C -0.552 2 -1 2.448 -1 3 C -1 3.552 -0.552 4 0 4 L 0 3 L 0 2 Z M 18 4 C 18.552 4 19 3.552 19 3 C 19 2.448 18.552 2 18 2 L 18 3 L 18 4 Z M 16.998 3.067 C 17.035 2.515 16.618 2.039 16.067 2.002 C 15.515 1.965 15.039 2.382 15.002 2.933 L 16 3 L 16.998 3.067 Z M 15.299 13.519 L 14.301 13.453 L 14.301 13.453 L 15.299 13.519 Z M 2.701 13.519 L 1.704 13.586 L 1.704 13.586 L 2.701 13.519 Z M 2.998 2.933 C 2.961 2.382 2.485 1.965 1.933 2.002 C 1.382 2.039 0.965 2.515 1.002 3.067 L 2 3 L 2.998 2.933 Z M 4.498 17.7 L 4.062 18.6 L 4.062 18.6 L 4.498 17.7 Z M 3.2 16.485 L 4.069 15.99 L 4.069 15.99 L 3.2 16.485 Z M 14.8 16.485 L 15.669 16.98 L 15.669 16.98 L 14.8 16.485 Z M 13.502 17.7 L 13.938 18.6 L 13.938 18.6 L 13.502 17.7 Z M 6 0 L 6 1 L 12 1 L 12 0 L 12 -1 L 6 -1 L 6 0 Z M 0 3 L 0 4 L 18 4 L 18 3 L 18 2 L 0 2 L 0 3 Z M 16 3 L 15.002 2.933 L 14.301 13.453 L 15.299 13.519 L 16.296 13.586 L 16.998 3.067 L 16 3 Z M 10.509 18 L 10.509 17 L 7.491 17 L 7.491 18 L 7.491 19 L 10.509 19 L 10.509 18 Z M 2.701 13.519 L 3.699 13.453 L 2.998 2.933 L 2 3 L 1.002 3.067 L 1.704 13.586 L 2.701 13.519 Z M 7.491 18 L 7.491 17 C 6.684 17 6.137 16.999 5.713 16.966 C 5.301 16.933 5.087 16.874 4.934 16.8 L 4.498 17.7 L 4.062 18.6 C 4.53 18.826 5.021 18.917 5.555 18.959 C 6.076 19.001 6.716 19 7.491 19 L 7.491 18 Z M 2.701 13.519 L 1.704 13.586 C 1.755 14.359 1.797 14.997 1.873 15.515 C 1.951 16.045 2.074 16.529 2.331 16.98 L 3.2 16.485 L 4.069 15.99 C 3.985 15.843 3.912 15.633 3.852 15.224 C 3.79 14.803 3.753 14.258 3.699 13.453 L 2.701 13.519 Z M 4.498 17.7 L 4.934 16.8 C 4.571 16.624 4.269 16.341 4.069 15.99 L 3.2 16.485 L 2.331 16.98 C 2.731 17.682 3.335 18.247 4.062 18.6 L 4.498 17.7 Z M 15.299 13.519 L 14.301 13.453 C 14.247 14.258 14.21 14.803 14.148 15.224 C 14.088 15.633 14.015 15.843 13.931 15.99 L 14.8 16.485 L 15.669 16.98 C 15.926 16.529 16.049 16.045 16.127 15.515 C 16.203 14.997 16.245 14.359 16.296 13.586 L 15.299 13.519 Z M 10.509 18 L 10.509 19 C 11.284 19 11.924 19.001 12.445 18.959 C 12.979 18.917 13.47 18.826 13.938 18.6 L 13.502 17.7 L 13.066 16.8 C 12.913 16.874 12.699 16.933 12.287 16.966 C 11.863 16.999 11.316 17 10.509 17 L 10.509 18 Z M 14.8 16.485 L 13.931 15.99 C 13.731 16.341 13.429 16.624 13.066 16.8 L 13.502 17.7 L 13.938 18.6 C 14.665 18.247 15.269 17.682 15.669 16.98 L 14.8 16.485 Z" fill="currentColor" fill-rule="nonzero"></path>
  </g>
</svg>